/* XPM */
static char * max_pressed_xpm[] = {
"18 18 21 1",
" 	c None",
".	c #CECAC9",
"+	c #7F7978",
"@	c #9A9291",
"#	c #9A9292",
"$	c #978F8E",
"%	c #938C8A",
"&	c #938B8B",
"*	c #908887",
"=	c #8C8484",
"-	c #8D8584",
";	c #3C3838",
">	c #898180",
",	c #898281",
"'	c #898181",
")	c #FCAF3E",
"!	c #867E7D",
"~	c #827B79",
"{	c #827B7A",
"]	c #6C6463",
"^	c #655F5E",
"..................",
"++++++++++++++++++",
"@#@@@@@@#@#@@#@@#@",
"$$$$$$$$$$$$$$$$$$",
"%%&%%&%%%%%&%%%%%&",
"******************",
"=-====;;;;;;;-==-=",
">,'>>';)))));,>>,'",
"!!!!!!;);;;);!!!!!",
"~{{~~{;);~;);{~~{{",
"]]]]]];);;;);]]]]]",
"]]]]]];)))));]]]]]",
"]]]]]];;;;;;;]]]]]",
"]]]]]]]]]]]]]]]]]]",
"]]]]]]]]]]]]]]]]]]",
"]]]]]]]]]]]]]]]]]]",
"]]]]]]]]]]]]]]]]]]",
"^^^^^^^^^^^^^^^^^^"};
