/* XPM */
static char * menu_xpm[] = {
"1 18 12 1",
" 	c #CECAC9",
".	c #7F7978",
"+	c #9A9291",
"@	c #978F8E",
"#	c #938C8A",
"$	c #908887",
"%	c #8C8484",
"&	c #898180",
"*	c #867E7D",
"=	c #827B79",
"-	c #6C6463",
";	c #655F5E",
" ",
".",
"+",
"@",
"#",
"$",
"%",
"&",
"*",
"=",
"-",
"-",
"-",
"-",
"-",
"-",
"-",
";"};
