/* XPM */
static char * min_xpm[] = {
"18 18 20 1",
" 	c #CECAC9",
".	c #7F7978",
"+	c #9A9292",
"@	c #9A9291",
"#	c #978F8E",
"$	c #938C8A",
"%	c #938B8B",
"&	c #908887",
"*	c #8D8584",
"=	c #8C8484",
"-	c #898281",
";	c #898180",
">	c #898181",
",	c #867E7D",
"'	c #827B7A",
")	c #827B79",
"!	c #6C6463",
"~	c #525050",
"{	c #FFFFFF",
"]	c #655F5E",
"                  ",
"..................",
"+@@+@@+@@+@+@@+@@+",
"##################",
"$$%$$%$$%$$$$%$$%$",
"&&&&&&&&&&&&&&&&&&",
"*==*==*==*=*==*==*",
"-;>-;>-;>-;-;>-;>-",
",,,,,,,,,,,,,,,,,,",
"')'')'')'')')'')''",
"!!!!!!~~~~~~~!!!!!",
"!!!!!!~{{{{{~!!!!!",
"!!!!!!~~~~~~~!!!!!",
"!!!!!!!!!!!!!!!!!!",
"!!!!!!!!!!!!!!!!!!",
"!!!!!!!!!!!!!!!!!!",
"!!!!!!!!!!!!!!!!!!",
"!]]]]]]]]]]]]]]]]]"};
